<?xml version="1.0" standalone="no"?><!DOCTYPE svg PUBLIC "-//W3C//DTD SVG 1.1//EN" "http://www.w3.org/Graphics/SVG/1.1/DTD/svg11.dtd"><svg t="1653639542519" class="icon" viewBox="0 0 1024 1024" version="1.1" xmlns="http://www.w3.org/2000/svg" p-id="5752" width="128" height="128" xmlns:xlink="http://www.w3.org/1999/xlink"><defs><style type="text/css"></style></defs><path d="M143.10559 864.993789a365.714286 69.962733 0 1 0 731.428571 0 365.714286 69.962733 0 1 0-731.428571 0Z" fill="#B5BEC8" p-id="5753"></path><path d="M810.931677 158.316124s-61.001143-44.257789-122.530186-54.465987c-42.327453-7.028075-84.915677 2.067081-108.047901 52.790062 0 0-31.912547 69.514335 69.660621 84.018882 33.136894 4.738385 120.253217-4.280447 160.917466-82.342957" fill="#58BEBD" p-id="5754"></path><path d="M874.534161 441.922783L508.816696 349.813665 143.10559 441.922783V839.552795h731.428571z" fill="#ABC1D9" p-id="5755"></path><path d="M683.319652 858.63354H334.320099C291.941764 858.63354 257.590062 824.281839 257.590062 781.903503V432.90395C257.590062 390.525615 291.941764 356.173913 334.320099 356.173913h348.999553C725.697988 356.173913 760.049689 390.525615 760.049689 432.90395v348.999553C760.049689 824.281839 725.697988 858.63354 683.319652 858.63354" fill="#F3D626" p-id="5756"></path><path d="M429.31677 483.378882c-10.535752 0-19.080745-9.317764-19.080745-20.813913v-15.61441C410.236025 435.45759 418.781019 426.136646 429.31677 426.136646s19.080745 9.317764 19.080746 20.813913v15.61441C448.397516 474.057938 439.852522 483.378882 429.31677 483.378882" fill="#352718" p-id="5757"></path><path d="M422.956522 445.217391m-6.360249 0a6.360248 6.360248 0 1 0 12.720497 0 6.360248 6.360248 0 1 0-12.720497 0Z" fill="#FFFFFF" p-id="5758"></path><path d="M581.962733 483.378882c-10.535752 0-19.080745-9.317764-19.080745-20.813913v-15.61441C562.881988 435.45759 571.426981 426.136646 581.962733 426.136646s19.080745 9.317764 19.080745 20.813913v15.61441c0 11.492969-8.544994 20.813913-19.080745 20.813913" fill="#352718" p-id="5759"></path><path d="M575.602484 445.217391m-6.360248 0a6.360248 6.360248 0 1 0 12.720497 0 6.360248 6.360248 0 1 0-12.720497 0Z" fill="#FFFFFF" p-id="5760"></path><path d="M372.074534 505.639752c0 12.29118-15.662112 22.26087-34.981366 22.260869s-34.981366-9.969689-34.981367-22.260869c0-12.30072 15.662112-22.26087 34.981367-22.26087s34.981366 9.960149 34.981366 22.26087M715.52795 505.639752c0 12.29118-15.662112 22.26087-34.981366 22.260869s-34.981366-9.969689-34.981367-22.260869c0-12.30072 15.662112-22.26087 34.981367-22.26087s34.981366 9.960149 34.981366 22.26087" fill="#EE7D1C" p-id="5761"></path><path d="M378.011826 597.163727L283.444472 573.796174C269.162534 570.269416 257.590062 554.445118 257.590062 538.452273c0-15.996025 11.575652-26.096099 25.85441-22.569341l94.567354 23.354832C392.293764 542.764522 403.875776 558.58882 403.875776 574.591205c0 15.996025-11.582012 26.096099-25.86395 22.569342zM143.10559 445.217391v396.074932L512 934.956522V538.88159L143.10559 445.217391z" fill="#EAEDFD" p-id="5762"></path><path d="M512 538.88159V934.956522l362.534161-93.664199V445.217391z" fill="#D8DDF4" p-id="5763"></path><path d="M285.743702 99.897242c8.745342-7.778584 28.557516-10.599354 46.633341-6.261664 22.050981 5.294907 38.822957 19.866236 45.253168 43.125664 6.757764 24.423354-15.328199 51.177739-50.331826 65.02718l-0.804571 0.311653 1.866733 1.176645c2.521839 1.567801 5.072298 3.06246 7.651378 4.493516l2.585441 1.408795c39.598907 21.128745 81.474783 25.61272 118.351504 20.645367l1.335652-0.184448 2.515478-0.381615c0.801391-0.127205 1.567801-0.26077 2.29287-0.391155l2.410534-0.461118 1.093962-0.235329a3.816149 3.816149 0 1 1 1.761789 7.42559l-1.28477 0.279851-1.497838 0.295751c-2.197466 0.413416-4.744745 0.830012-7.610038 1.214808-38.326857 5.164522-81.751453 0.51518-122.959503-21.475379a188.807155 188.807155 0 0 1-15.8879-9.505391l-1.720448-1.157565-0.642385 0.197167c-42.047602 12.644174-88.133963 4.458534-124.024844-27.031056l-1.294311-1.144844a3.816149 3.816149 0 1 1 5.100919-5.676522C228.809938 200.602236 269.995727 209.315776 308.389366 199.826286l1.024-0.26077-1.020819-0.76323c-44.388174-33.550311-54.294261-69.787826-23.660125-97.989168l1.01128-0.915876z m44.852472 1.160746c-15.86246-3.809789-33.162335-1.345193-39.783354 4.541217-27.857888 24.779528-19.048944 56.82882 24.009938 88.486956l2.677664 1.939876 1.141665 0.804572c34.796919-11.750559 56.914683-36.447404 51.826484-57.293118l-0.190807-0.740969c-5.647901-20.422758-20.193789-33.060571-39.68159-37.738534z" fill="#5D6776" p-id="5764"></path><path d="M540.808745 131.199205a3.816149 3.816149 0 0 1 5.35851-0.626485l1.418335 1.071702 1.383354 1.0081 1.043081 0.740969 2.235627 1.54872c1.561441 1.065342 3.259627 2.187925 5.088199 3.358211a267.133615 267.133615 0 0 0 31.642236 17.242634c60.047106 27.794286 126.626186 35.159453 195.180124 9.629416a3.816149 3.816149 0 0 1 2.664944 7.152099c-65.52328 24.401093-129.28159 19.653168-187.436521-3.943354l-3.911553-1.618683a311.248298 311.248298 0 0 1-9.705739-4.293168 274.730932 274.730932 0 0 1-32.545392-17.738732 227.124472 227.124472 0 0 1-2.744447-1.78087l-2.540919-1.707727c-0.810932-0.553342-1.590062-1.093963-2.331031-1.615503l-1.720447-1.230708-2.451876-1.838112a3.816149 3.816149 0 0 1-0.626485-5.358509z" fill="#46988F" p-id="5765"></path></svg>