<?xml version="1.0" standalone="no"?><!DOCTYPE svg PUBLIC "-//W3C//DTD SVG 1.1//EN" "http://www.w3.org/Graphics/SVG/1.1/DTD/svg11.dtd"><svg t="1653495296720" class="icon" viewBox="0 0 1024 1024" version="1.1" xmlns="http://www.w3.org/2000/svg" p-id="3737" xmlns:xlink="http://www.w3.org/1999/xlink" width="200" height="200"><defs><style type="text/css"></style></defs><path d="M512 962.56C263.168 962.56 61.44 760.832 61.44 512S263.168 61.44 512 61.44s450.56 201.728 450.56 450.56-201.728 450.56-450.56 450.56z m196.32128-704.79872c-155.19744 116.57216-239.94368 182.02624-254.23872 196.32128a81.92 81.92 0 1 0 115.83488 115.83488c14.29504-14.29504 79.74912-99.04128 196.32128-254.23872a40.96 40.96 0 0 0-57.91744-57.91744z m-351.68256 40.96l-40.96-40.96a40.96 40.96 0 0 0-57.91744 57.91744l40.96 40.96a40.96 40.96 0 0 0 57.91744-57.91744zM552.96 245.76V184.32a40.96 40.96 0 1 0-81.92 0v61.44a40.96 40.96 0 1 0 81.92 0zM245.76 471.04H184.32a40.96 40.96 0 1 0 0 81.92h61.44a40.96 40.96 0 1 0 0-81.92z m593.92 0h-61.44a40.96 40.96 0 1 0 0 81.92h61.44a40.96 40.96 0 1 0 0-81.92z" p-id="3738" fill="#ff8622"></path></svg>