<?xml version="1.0" standalone="no"?><!DOCTYPE svg PUBLIC "-//W3C//DTD SVG 1.1//EN" "http://www.w3.org/Graphics/SVG/1.1/DTD/svg11.dtd"><svg t="1653496151479" class="icon" viewBox="0 0 1024 1024" version="1.1" xmlns="http://www.w3.org/2000/svg" p-id="10984" xmlns:xlink="http://www.w3.org/1999/xlink" width="200" height="200"><defs><style type="text/css"></style></defs><path d="M159.232 268.629333m-17.066667 0a17.066667 17.066667 0 1 0 34.133334 0 17.066667 17.066667 0 1 0-34.133334 0Z" fill="#fa4659" p-id="10985"></path><path d="M273.066667 268.629333m-17.066667 0a17.066667 17.066667 0 1 0 34.133333 0 17.066667 17.066667 0 1 0-34.133333 0Z" fill="#fa4659" p-id="10986"></path><path d="M216.234667 268.629333m-17.066667 0a17.066667 17.066667 0 1 0 34.133333 0 17.066667 17.066667 0 1 0-34.133333 0Z" fill="#fa4659" p-id="10987"></path><path d="M341.333333 516.266667l51.2-51.2a17.066667 17.066667 0 1 0-24.234666-24.234667l-63.488 63.658667a17.066667 17.066667 0 0 0 0 24.064l63.488 63.658666a17.066667 17.066667 0 0 0 24.234666 0 17.066667 17.066667 0 0 0 0-24.064zM585.728 591.872a17.066667 17.066667 0 0 0 24.064 0L673.450667 529.066667a17.066667 17.066667 0 0 0 0-24.064l-63.658667-63.658667a17.066667 17.066667 0 0 0-24.064 24.234667l51.2 51.2-51.2 51.2a17.066667 17.066667 0 0 0 0 23.893333zM529.066667 446.293333a17.066667 17.066667 0 0 0-23.381334 6.314667L442.709333 563.2a17.066667 17.066667 0 1 0 29.525334 17.066667l63.658666-110.08a17.066667 17.066667 0 0 0-6.826666-23.893334z" fill="#fa4659" p-id="10988"></path><path d="M953.344 682.666667a4.949333 4.949333 0 0 1-4.608-3.242667 178.005333 178.005333 0 0 0-28.501333-49.322667 4.949333 4.949333 0 0 1 0-5.632 39.253333 39.253333 0 0 0-14.336-53.589333l-12.8-7.68V251.562667a51.2 51.2 0 0 0-51.2-51.2H136.533333a51.2 51.2 0 0 0-51.2 51.2v432.469333a39.936 39.936 0 0 0 39.765334 39.765333H358.4l-17.066667 63.146667h-22.698666a73.898667 73.898667 0 0 0-71.850667 56.832H204.8a17.066667 17.066667 0 0 0 0 34.133333h434.688a36.181333 36.181333 0 0 0 1.194667 12.117334 38.4 38.4 0 0 0 18.261333 23.893333l36.010667 20.821333a39.253333 39.253333 0 0 0 53.589333-14.506666 5.290667 5.290667 0 0 1 5.290667-2.389334 166.229333 166.229333 0 0 0 56.661333 0 5.12 5.12 0 0 1 5.290667 2.56 39.253333 39.253333 0 0 0 34.133333 19.456 38.741333 38.741333 0 0 0 19.626667-5.12l36.010666-20.821333a39.082667 39.082667 0 0 0 18.261334-23.893333 38.570667 38.570667 0 0 0-3.925334-29.696 5.12 5.12 0 0 1 0-5.802667 179.541333 179.541333 0 0 0 28.501334-49.152 4.778667 4.778667 0 0 1 4.608-3.242667 39.424 39.424 0 0 0 39.253333-39.253333v-41.642667A39.253333 39.253333 0 0 0 953.344 682.666667zM119.466667 251.562667a17.066667 17.066667 0 0 1 17.066666-17.066667h705.365334a17.066667 17.066667 0 0 1 17.066666 17.066667v51.2H119.466667z m5.632 438.101333a5.632 5.632 0 0 1-5.632-5.632V336.896h739.498666V546.133333a39.082667 39.082667 0 0 0-43.178666 17.066667 4.949333 4.949333 0 0 1-5.12 2.218667 175.274667 175.274667 0 0 0-56.661334 0 4.778667 4.778667 0 0 1-5.12-2.218667 39.082667 39.082667 0 0 0-53.589333-14.336l-36.010667 20.821333a38.229333 38.229333 0 0 0-18.261333 23.722667 39.594667 39.594667 0 0 0 3.754667 29.866667 4.608 4.608 0 0 1 0 5.632 178.005333 178.005333 0 0 0-28.501334 49.322666 4.949333 4.949333 0 0 1-4.608 3.242667 39.082667 39.082667 0 0 0-23.210666 7.68zM580.266667 786.944H375.466667l17.066666-63.146667h179.2v39.082667a39.594667 39.594667 0 0 0 8.533334 24.064z m-261.461334 34.133333h303.786667a187.733333 187.733333 0 0 0 13.312 22.698667H282.794667a39.765333 39.765333 0 0 1 35.84-22.698667z m639.658667-58.197333a5.12 5.12 0 0 1-5.12 5.12 39.424 39.424 0 0 0-36.693333 25.258667 144.384 144.384 0 0 1-22.869334 39.765333 39.424 39.424 0 0 0-3.584 44.373333 4.437333 4.437333 0 0 1 0 3.754667 4.949333 4.949333 0 0 1-2.389333 3.242667L852.309333 904.533333a5.12 5.12 0 0 1-6.997333-2.048 39.424 39.424 0 0 0-40.448-18.944 135.168 135.168 0 0 1-45.397333 0 39.424 39.424 0 0 0-40.448 19.114667 5.290667 5.290667 0 0 1-6.997334 1.877333l-36.010666-20.821333a4.949333 4.949333 0 0 1-2.389334-3.242667 4.437333 4.437333 0 0 1 0-3.754666 39.765333 39.765333 0 0 0-3.584-44.373334 142.506667 142.506667 0 0 1-23.04-39.765333A38.912 38.912 0 0 0 610.986667 768a5.12 5.12 0 0 1-5.12-5.12v-41.642667a4.949333 4.949333 0 0 1 5.12-5.12 39.253333 39.253333 0 0 0 36.522666-25.258666 140.117333 140.117333 0 0 1 23.04-39.765334 39.765333 39.765333 0 0 0 3.584-44.373333 4.778667 4.778667 0 0 1 0-3.925333 4.437333 4.437333 0 0 1 2.389334-3.072l36.010666-20.821334a4.778667 4.778667 0 0 1 2.56 0 5.12 5.12 0 0 1 4.266667 2.389334 39.594667 39.594667 0 0 0 40.448 19.114666 135.168 135.168 0 0 1 45.397333 0A39.765333 39.765333 0 0 0 845.312 580.266667a4.949333 4.949333 0 0 1 6.826667-1.706667l36.010666 20.821333a4.437333 4.437333 0 0 1 2.389334 3.072 4.778667 4.778667 0 0 1 0 3.925334 39.253333 39.253333 0 0 0 3.584 44.202666 145.237333 145.237333 0 0 1 22.869333 39.936A39.594667 39.594667 0 0 0 953.344 716.8a4.949333 4.949333 0 0 1 5.12 5.12z" fill="#fa4659" p-id="10989"></path><path d="M782.165333 664.576a77.482667 77.482667 0 1 0 77.482667 77.482667 77.482667 77.482667 0 0 0-77.482667-77.482667z m0 120.832a43.349333 43.349333 0 1 1 43.349334-43.349333A43.349333 43.349333 0 0 1 782.165333 785.066667z" fill="#fa4659" p-id="10990"></path></svg>