<svg id="Layer_2" data-name="Layer 2" xmlns="http://www.w3.org/2000/svg" xmlns:xlink="http://www.w3.org/1999/xlink" viewBox="0 0 400 300" width="406" height="306" class="illustration styles_illustrationTablet__1DWOa"><defs><linearGradient id="linear-gradient" x1="313.81" y1="215.23" x2="336.14" y2="192.74" gradientUnits="userSpaceOnUse"><stop offset="0" stop-color="#ffc49e" stop-opacity="0"></stop><stop offset="1" stop-color="#c1272d"></stop></linearGradient><linearGradient id="linear-gradient-2" x1="232.13" y1="251.12" x2="268.41" y2="224.94" xlink:href="#linear-gradient"></linearGradient><linearGradient id="linear-gradient-3" x1="191.08" y1="192.12" x2="227.36" y2="165.93" xlink:href="#linear-gradient"></linearGradient><linearGradient id="linear-gradient-4" x1="124.26" y1="212.94" x2="160.54" y2="186.76" xlink:href="#linear-gradient"></linearGradient><linearGradient id="linear-gradient-5" x1="30.12" y1="186.5" x2="45.87" y2="176.39" xlink:href="#linear-gradient"></linearGradient></defs><title>PP</title><path d="M194.28,287.7,14.56,181.48C8.84,178.27,3.93,173,9.51,169.53l180.37-104c2.71-1.68,6.82-2.78,9.57-1.18L388.11,173.89c5.72,3.32,6.75,12.6,1,15.93L218,287.53A23.9,23.9,0,0,1,194.28,287.7Z" fill="#ff9f9f"></path><path d="M359.8,206.29l-23-15.3H319.19l-35.77,17.46,30.5,24.11C328.47,223,344,215.32,359.8,206.29Z" fill="url(#linear-gradient)"></path><path d="M278.13,236.11l-14.55-4.4-21.71.78-34,16.93L236,267.08C250.6,257.49,264.45,246.91,278.13,236.11Z" fill="url(#linear-gradient-2)"></path><path d="M232.14,170.25l-14.55-4.4-21.71.78-34,16.93L205,211.21C219.52,201.62,231.84,195.25,232.14,170.25Z" fill="url(#linear-gradient-3)"></path><path d="M170.26,197.92l-14.55-4.4L134,194.3l-34,16.93,28.18,17.67C142.72,219.31,156.58,208.72,170.26,197.92Z" fill="url(#linear-gradient-4)"></path><polyline points="44.93 171.66 20.82 184.71 31.18 191.82 57.25 176.84" fill="url(#linear-gradient-5)"></polyline><path d="M42.93,159.63s-1.77,15.25,6.29,18.2,12.38-4.73,12.51-18.2" fill="#68e1fd"></path><ellipse cx="52.33" cy="159.63" rx="9.4" ry="5.43" fill="#f2696a"></ellipse><path d="M54.74,147.55s-3.69-5.33-2.08-9c0,0,1.33-2.37,3.21-2.74,0,0-.19,5.05,1.69,4.41s0-5.29,0-5.29,2-2.67,4.14-2.59,0,4.72,1.5,4,.09-4.72,1.79-5.19a35.53,35.53,0,0,1,4.7-.75s1.6,4.61,0,5.27-3.95.88-2.82,1.9,4.33-.15,4.33-.15.2,2.59-.89,3.71-7.48-1.36-6.35.87S69.31,143,69.31,143a17.33,17.33,0,0,1-4.7,4.5C62.07,149,54.74,147.55,54.74,147.55Z" fill="#8ccc00"></path><path d="M55.6,160.88s-2.66-2.63-2.14-4.89a3.46,3.46,0,0,1,1.53-1.9s.43,2.89,1.43,2.32-.56-3-.56-3,.84-1.73,2.07-1.91.5,2.68,1.28,2.08-.45-2.69.46-3.14a20.52,20.52,0,0,1,2.59-.93s1.4,2.44.56,3-2.15.92-1.4,1.38,2.44-.55,2.44-.55a3.38,3.38,0,0,1-.11,2.2c-.5.75-4.39,0-3.51,1.17s3.16.06,3.16.06a10,10,0,0,1-2.19,3.06C59.91,160.9,55.6,160.88,55.6,160.88Z" fill="#8ccc00"></path><path d="M45.8,155.19s-6.48.25-8.72-3.09c0,0-1.28-2.39-.59-4.18,0,0,4.16,2.87,4.63.94S36.66,146,36.66,146s-1.2-3.1,0-4.88,4,2.54,4.14.86-3.93-2.61-3.41-4.29a35.53,35.53,0,0,1,1.89-4.37s4.74,1.13,4.44,2.83-1.38,3.8.09,3.4,2.2-3.73,2.2-3.73,2.29,1.22,2.66,2.74-5.17,5.58-2.68,5.82,3.82-3.92,3.82-3.92a17.33,17.33,0,0,1,1.27,6.38C50.93,149.77,45.8,155.19,45.8,155.19Z" fill="#8ccc00"></path><path d="M68.28,132.38l-2.07,1.77c.07-.73.16-1.46.27-2.19.06-.39-.53-.55-.59-.16q-.23,1.46-.35,2.94c-1.82,1.59-3.62,3.26-5.29,5a21.84,21.84,0,0,1-.11-3.74c0-.39-.59-.39-.61,0a22.46,22.46,0,0,0,.18,4.32,42.33,42.33,0,0,0-3,3.64,12.12,12.12,0,0,1-2.1-4.89c-.07-.39-.66-.22-.59.16a12.54,12.54,0,0,0,2.26,5.18l.06.06a23.65,23.65,0,0,0-4.7,13c0,.39.6.39.61,0a23,23,0,0,1,4.51-12.6,23.59,23.59,0,0,0,7.58.74c.39,0,.39-.64,0-.61a23.12,23.12,0,0,1-7.2-.67,44.38,44.38,0,0,1,4.26-4.95l.05,0c1.43.13,2.86.25,4.29.31a5.23,5.23,0,0,0,2.66-.31c.35-.18,0-.7-.31-.53-1,.5-2.37.23-3.43.17-.91-.05-1.81-.13-2.72-.21,2.18-2.16,4.52-4.17,6.78-6.08C69,132.56,68.58,132.13,68.28,132.38Z" fill="#06577a"></path><path d="M49.32,144.29a.31.31,0,0,0-.59-.16,10.84,10.84,0,0,1-3.93,5.64q-1-2.89-1.9-5.83a18.28,18.28,0,0,0,3.59-5.07c.17-.35-.36-.66-.53-.31a17.81,17.81,0,0,1-3.26,4.69c-.64-2.25-1.2-4.52-1.68-6.82-.08-.39-.67-.22-.59.16q1,4.71,2.41,9.3a14.35,14.35,0,0,1-3.34-1.09c-.35-.17-.67.36-.31.53a15,15,0,0,0,3.86,1.23h0c.65,2,1.37,4,2.14,6a14.8,14.8,0,0,1-5.32-1.17c-.36-.15-.67.37-.31.53a15.61,15.61,0,0,0,5.87,1.26q1.47,3.68,3.24,7.24c.18.35.7,0,.53-.31A95.5,95.5,0,0,1,45,150.38h0A11.51,11.51,0,0,0,49.32,144.29Z" fill="#06577a"></path><path d="M60.4,152.21,58.72,155a5.28,5.28,0,0,1-.53-.88c-.17-.36-.7,0-.53.31a5.83,5.83,0,0,0,.7,1.11l0,0-1.82,3.06a1.25,1.25,0,0,1-.37-.73c0-.39-.66-.39-.61,0a1.93,1.93,0,0,0,.67,1.26L54,163a.31.31,0,0,0,.53.31l3-5A4.57,4.57,0,0,0,59,158c.37-.12.21-.71-.16-.59a4.07,4.07,0,0,1-.95.18l3-5.11A.31.31,0,0,0,60.4,152.21Z" fill="#06577a"></path><path d="M213.78,161.84l-.07-7.08-6.24-.26-1.32,10.64S212.44,165.73,213.78,161.84Z" fill="#ffbeb3"></path><path d="M206.46,83.77a194.82,194.82,0,0,0-1.3,24c.3,10.77-1,45.91-1,45.91s8.32,4,13.32,1.64c0,0,2-23.38,2.25-31.11s-1.33-39.77-1.33-39.77" fill="#68e1fd"></path><path d="M213.78,161.84s-3.91,3-6.62,2.29c0,0,1.07-3,.31-4s-1.3-.21-1.74.85a14.49,14.49,0,0,1-1.33,2.47,1.68,1.68,0,0,1-.32.28c-2.59,3.34-9.06,2.11-8.44,6.11.13.87,2.06,1.79,2.8,2a8.64,8.64,0,0,0,4,0c3.45-.94,4.22-3.14,7.28-2.43s4-.9,4.48-2S213.78,161.84,213.78,161.84Z" fill="#050817"></path><path d="M223.64,150.73c1.21,7.95,2.83,20.17,2.76,21.27-.1,1.56,2.85,7.9,5.27-.31,0,0,.24-12.91.14-20.78A75.29,75.29,0,0,1,223.64,150.73Z" fill="#ffbeb3"></path><path d="M224.4,173.25s-.43-2.46,1.23-2.61,3.56.2,3.79,1.54a23.87,23.87,0,0,1,.26,2.9s2-6,2.49-6,1.12,2,1.08,2.77a66.23,66.23,0,0,1-1.17,7.87c-.42,1.18-3,5.37-6.57,5.9s-5.46-1.7-4.88-3.32S224.37,177.63,224.4,173.25Z" fill="#050817"></path><path d="M213.17,86.76s2.17,28.41,3.07,37.54S221.69,164,221.69,164s7.16,1.94,13.29-.72c0,0-2.43-47.69-3.8-59.67-1.8-15.7-5-23.31-5-23.31" fill="#68e1fd"></path><path d="M224,56.39s13.43-1.68,15-2.94,1.08-17.53,1.27-18.8,4.49-2.3,5.24-.92,2.8,17.8,1.76,22.1-22.13,13.34-22.13,13.34Z" fill="#ffbeb3"></path><path d="M205.75,55.52c-1.1,1.86-4,12.77-4,12.77l-4.13-9a71.93,71.93,0,0,0-3.52-6.85l-4.67,1.81c2.57,7.76,4.54,15.42,8.75,22.51A5.52,5.52,0,0,0,199.43,78c4.3,2.7,9.24-.91,10.13-1.77L213.09,53C212.39,51.9,206.85,53.66,205.75,55.52Z" fill="#ffbeb3"></path><path d="M226.5,57.47a75.45,75.45,0,0,0-15.41-3.81l-.66,0a27.76,27.76,0,0,1-5,11.24c2.25.8,15.31,4.54,20.1,5.56C231.77,56.47,229.88,61.84,226.5,57.47Z" fill="#ffbeb3"></path><path d="M194.61,53.23s.6-6.38-.06-6.9-1.35.24-1.35.24a2.35,2.35,0,0,0-2-1.84c-1.67-.13-4.59,2.37-4.86,3.67s3.32,6.15,3.32,6.15Z" fill="#ffbeb3"></path><path d="M240.67,35.28s-1.38-2.84-2-4.1,1-2.34,1-2.34a2.49,2.49,0,0,1,2.21-3c2.66-.36,4.31-.18,5.09,1.35s-1.48,7.09-1.48,7.09" fill="#ffbeb3"></path><path d="M214.67,52.34c-.44-.07-6.34-.51-8.92,2.93A27.08,27.08,0,0,0,202,62.48L206.83,66l-1.38,22.66s6.66,3.69,11.89,3.19,11.28-3.52,11.28-3.52V67.1l9.27-4.61-1.95-8.65s-9.7,1.41-11.42,1.2S222.83,53.63,214.67,52.34Z" fill="#ffc866"></path><path d="M222.1,46.84l-7.52,1.79,0,7.55a7.06,7.06,0,0,0,7.21.14Q221.93,51.58,222.1,46.84Z" fill="#efa49a"></path><path d="M232.62,36.24a4.7,4.7,0,0,0-5.4-4,6.52,6.52,0,0,0-4.82,2.85c-4.22-1.75-9.12.06-11.08,2.65a4.39,4.39,0,0,0,0,5.8L219,52.28A22.69,22.69,0,0,0,223,51c2.19-1,4-5.21,4-9a4.64,4.64,0,0,0,2.44-.18A5.06,5.06,0,0,0,232.62,36.24Z" fill="#050817"></path><path d="M211.29,43.54s.19,11.08,3.21,11.8a5.39,5.39,0,0,0,5.77-2.71,4.8,4.8,0,0,0,.52-2s2.81-1.23,2.31-2.86-2.23.53-2.69.3a2.6,2.6,0,0,1-1.77-2.71C218.58,43.25,214,45.44,211.29,43.54Z" fill="#ffbeb3"></path><path d="M144.45,87.84s-8.3-15.81.8-15.66l19.57-12.33.15-14.3L169.23,43s4.77,14.56,3.85,19.79S159,77.84,155.74,80.06C151.34,83.05,144.45,87.84,144.45,87.84Z" fill="#ffbeb3"></path><polyline points="147.9 70.18 157.09 64.15 162.01 76.15 157.09 83.3" fill="#68e1fd"></polyline><path d="M149,192a3.25,3.25,0,0,0,.38,2.83c.95,1.08,11.47,6.75,16.42,5.38s4.4-3,4.35-3.82" fill="#2648a9"></path><path d="M134.23,197.81a6,6,0,0,0-.15,3.39c.48,1.75,4.91,9.24,8.8,9.84s7.55-.4,7.33-3.58" fill="#2648a9"></path><path d="M145.62,153.61s-1.82,9.73-2.24,13-2,29.14-2,29.14-3.45,4.75-5.06,3.59-2.91-22-2.14-30.34,2.28-20.21,2.28-20.21" fill="#ffbeb3"></path><path d="M158.71,144.14c.2.45-3.06,45.14-3.06,45.14s-2.49,2.8-5.42,1.22c0,0-3.75-30.22.14-42.41" fill="#ffbeb3"></path><path d="M137.21,107.7s-3.55,16.18-4.11,22,.25,26.39.25,26.39,11.55,6.08,15.67-3.35c0,0,2.32,2.66,11.94-3,0,0,.26-31.83-3.05-38.74S138.21,105.1,137.21,107.7Z" fill="#050817"></path><path d="M133.07,73.28a14.6,14.6,0,0,0-6.68,8.79c-1.69,6.23-5.12,18.42-5.55,20.32s-1.8,17.75-1.8,17.75-1.69,5-1.69,6.34a16.82,16.82,0,0,0,.53,3.38s2,1.8,3,1.8,3.8-.42,3.91-1.06-2.11-1.48-1.8-3.17,1.56-1.69,2.26-1,1.54-.85,1.54-.85-2.54-3.06-3.8-4.33c0,0,4.65-16.43,5.49-18.83s4.11-9.94,5.12-10.61,4.6.6,7.24-7.22S133.07,73.28,133.07,73.28Z" fill="#ffbeb3"></path><path d="M158.25,78.72c-.3-3.5-1.62-7.72-5.42-8.83a8.89,8.89,0,0,0-3.53-.19l-4.6.69-5.94.89s-4.66.69-5.68,2c0,0,5.67,2.8,5.43,8.88-.16,4.26-1.93,10-4.94,9.69,0,0,1.06,19.5,2.28,22.31,0,0,13.45,3.08,22.87-3.34C158.72,110.83,158.85,85.64,158.25,78.72Z" fill="#68e1fd"></path><path d="M140.54,64.15a17.8,17.8,0,0,1,0,4.17,6.16,6.16,0,0,1-1.78,3s6.25,7.81,11.17,7-2-8.06-2-8.06.54.17.46-2.09" fill="#ffbeb3"></path><path d="M135.79,192.58s.55,5.61,1.57,4.51-.36-4.47,1.45-4.4,2.88-.35,3.08.49,2.23,7,5.3,9.56,4.37,5.3,1.28,5.48a3.75,3.75,0,0,0-2.13,1c-.86.87-4.54.36-6.07-1.28s-6-8.68-6-10.12S134.41,192.91,135.79,192.58Z" fill="#050817"></path><path d="M154.74,189.85s-.93-2.29.1-2.73,2.06-1,2.57-.38.82,1.88,1.22,2.25,9.22,4.74,10.54,6,1.05,2.06.65,1.81-.93-.61-1.19,0-.22,2.73-1.88,2.62-4.88.18-6.67-1.31-6.3-2.63-8-3.43S149,193.14,149,192s.13-4.81.87-4.93.48,2.07,1.65,2.65A6,6,0,0,0,154.74,189.85Z" fill="#050817"></path><path d="M148,70.25l-.06-.07-5-4.48L141,67.24a20,20,0,0,0,1.53,1.82C144.22,70.52,146.46,71.73,148,70.25Z" fill="#cc7158"></path><path d="M152.48,52.4a2.83,2.83,0,0,0-1.54-.86,3.48,3.48,0,0,0-.45-.6,3.94,3.94,0,0,0-2.62-1.27,2.34,2.34,0,0,0-1.09.2,4.47,4.47,0,0,0-1.89-.62,3,3,0,0,0-1.93.48,3.87,3.87,0,0,0-2.91.08,3.27,3.27,0,0,0-1.5,1.39A3.63,3.63,0,0,0,136,53.06a3,3,0,0,0-.3,2.34,2.87,2.87,0,0,0-.28,2.93,3.22,3.22,0,0,0,.84,1.09,2.1,2.1,0,0,0,0,.3,9.7,9.7,0,0,0,1.47,3.81,8.35,8.35,0,0,0,1.1,1.33c.27.27.55.52.84.77s.23.38.2.16A1.74,1.74,0,0,0,141,67.24a8.05,8.05,0,0,0,3-3.62.41.41,0,0,1,.72,0l5.44-5.82A3.92,3.92,0,0,0,153,55.25,2.93,2.93,0,0,0,152.48,52.4Z" fill="#583228"></path><path d="M151.63,56.18c.29-.56,2.16,12.94-2.2,13.9s-6.83-4.25-6.83-4.25-4.14-2.35-2-3.82,3.12.57,3.12.57-1-5.81,1.71-5.32S150.48,58.39,151.63,56.18Z" fill="#ffbeb3"></path><path d="M133.35,156.07l.55,32.42s6.65,1.4,11.32,0L148.61,155l-1,28.18s6.23,1.74,11.06-.13L161,149.73" fill="#050817"></path><path d="M134.36,72.43s-5.22,2.7-7.46,7.5c-1.71,3.67-4.15,11-4.15,11l8.53,4.87,3.84-3.45s4.73-6,4.86-9.44S138.62,72.65,134.36,72.43Z" fill="#68e1fd"></path><path d="M165,45.55s-3.07-3.21-3-4.17a1.68,1.68,0,0,1,1-1.31s-1-2.44,1.22-3.31,5.66-1,6.09,0S169.23,43,169.23,43,166.5,47.28,165,45.55Z" fill="#ffbeb3"></path><path d="M277.26,61.53c-3.45.06-7.65-2.5-8.07-6.15a6.64,6.64,0,0,0,.85,0c2.1-.09,5.48-1.62,5.55-4.13s-3.2-2.76-4.91-2.07a5.08,5.08,0,0,0-3.09,3.88,5.58,5.58,0,0,1-1.19-.78,8.08,8.08,0,0,1-2.58-4.65,7.41,7.41,0,0,1-.09-2.31,4.85,4.85,0,0,0,2.54.16c2.11-.43,4.8-3.11,2.87-5.25-1.61-1.8-4.44-.67-5.72.89a6.8,6.8,0,0,0-.78,1.2,4.39,4.39,0,0,1-1.17-3,6,6,0,0,1,2.5-4.81c.92-.72-.37-2-1.28-1.28a7.44,7.44,0,0,0-2.63,8.29,6.43,6.43,0,0,0,1.89,2.75c-.83,4.18,1.57,9.23,5.52,10.68a8.15,8.15,0,0,0,.72,2.91,9.7,9.7,0,0,0,9.08,5.44A.91.91,0,0,0,277.26,61.53Zm-7.92-8.15,1-1.85.08,0a2.89,2.89,0,0,1,2-1,.92.92,0,0,1,1.06.48.59.59,0,0,1,0,.25c.25.83-1.32,1.69-1.75,1.89a4.77,4.77,0,0,1-2.45.42C269.31,53.5,269.32,53.44,269.33,53.38ZM266.2,41.17a.93.93,0,0,1,1,.19c1,.82-.06,2-1.06,2.28v0a3.39,3.39,0,0,1-1.91,0C264.82,42.57,265.74,41,266.2,41.17Z" fill="#464daa"></path><path d="M112.68,80.56c-3.45.06-7.65-2.5-8.07-6.15a6.64,6.64,0,0,0,.85,0c2.1-.09,5.48-1.62,5.55-4.13s-3.2-2.76-4.91-2.07A5.08,5.08,0,0,0,103,72.11a5.58,5.58,0,0,1-1.19-.78,8.08,8.08,0,0,1-2.58-4.65,7.41,7.41,0,0,1-.09-2.31,4.85,4.85,0,0,0,2.54.16c2.11-.43,4.8-3.11,2.87-5.25-1.61-1.8-4.44-.67-5.72.89a6.8,6.8,0,0,0-.78,1.2,4.39,4.39,0,0,1-1.17-3,6,6,0,0,1,2.5-4.81c.92-.72-.37-2-1.28-1.28a7.44,7.44,0,0,0-2.63,8.29,6.43,6.43,0,0,0,1.89,2.75c-.83,4.18,1.57,9.23,5.52,10.68a8.15,8.15,0,0,0,.72,2.91,9.7,9.7,0,0,0,9.08,5.44A.91.91,0,0,0,112.68,80.56Zm-7.92-8.15,1-1.85.08,0a2.89,2.89,0,0,1,2-1,.92.92,0,0,1,1.06.48.59.59,0,0,1,0,.25c.25.83-1.32,1.69-1.75,1.89a4.77,4.77,0,0,1-2.45.42C104.73,72.52,104.74,72.47,104.75,72.41ZM101.62,60.2a.93.93,0,0,1,1,.19c1,.82-.06,2-1.06,2.28v0a3.39,3.39,0,0,1-1.91,0C100.24,61.59,101.15,60,101.62,60.2Z" fill="#dd582a"></path><path d="M289.58,82.51a4.43,4.43,0,0,0-5.93-.19c-1.45,1.28.68,3.4,2.12,2.12.59-.52,1.61,0,2,.52.79,1,.67,2.6.5,3.78a1.55,1.55,0,0,0,1,1.85,1.51,1.51,0,0,0,1.85-1C291.54,87.12,291.56,84.28,289.58,82.51Z" fill="#dd582a"></path><path d="M161.13,22.53c-3.45-1.34-7.36,1.56-7.42,5.15,0,1.93,3,1.93,3,0a2.66,2.66,0,0,1,3.63-2.26C162.14,26.12,162.92,23.22,161.13,22.53Z" fill="#ffc866"></path><path d="M195.55,21.67a1.5,1.5,0,0,0,0,3A1.5,1.5,0,0,0,195.55,21.67Z" fill="#dd582a"></path><path d="M186.87,90.53a1.5,1.5,0,0,0,0,3A1.5,1.5,0,0,0,186.87,90.53Z" fill="#cfe217"></path><path d="M259.61,70.06,256,75.49c-1.07,1.62,1.53,3.12,2.59,1.51l3.59-5.43C263.27,70,260.67,68.45,259.61,70.06Z" fill="#ffc866"></path><path d="M126.19,46l-2.91-2.23a1.51,1.51,0,0,0-2.05.54,1.54,1.54,0,0,0,.54,2.05l2.91,2.23a1.51,1.51,0,0,0,2.05-.54A1.54,1.54,0,0,0,126.19,46Z" fill="#464daa"></path><path d="M220.69,14.12c-.81-1.75-3.4-.23-2.59,1.51A2.92,2.92,0,0,1,216,19.43c-1.93.45-3.77-1.13-4.41-2.84s-3.57-1-2.89.8c1.27,3.4,4.88,6.09,8.6,4.78A5.93,5.93,0,0,0,220.69,14.12Z" fill="#cfe217"></path><path d="M235.49,123.32s-3.73-1.53-3.9-2A22.18,22.18,0,0,0,229,118a1.6,1.6,0,0,0-.16,1.91c.61.77,1.1,1.18.89,1.46s-7.85-3.21-8.22-3.17-.24,1.22.61,1.79l1.38.85s-2.1-.53-2.19-.24a1.23,1.23,0,0,0,.89,1.34s-1,.24-.12.94a3,3,0,0,0,1.22.73s-.89,0-.57.65,2.61.65,3.1.89a56.18,56.18,0,0,0,8.86,1.79C236.4,126.92,235.49,123.32,235.49,123.32Z" fill="#ffb5a9"></path><path d="M244,94.49a43.14,43.14,0,0,0-3.34-4.12c-.65-.46-5.4-1.21-5.86-1.84s3.62-.84,4.07-.7-4.58-4.72-4.18-5.73,4.58,3.47,4.58,3.47-4-4.88-3.37-5.55,3.88,4.24,4.35,4.16-1.92-3.65-1.17-4.28,3.39,4.39,3.39,4.39,0-3.05.59-3.16.78,4.52.87,5.05,3.59,6,3.59,6" fill="#ffb5a9"></path><path d="M262.52,105.32c-.94-.72-17-16.55-17-16.55s-3.66,1.25-4,3.76c0,0,10.87,16.69,14.24,19" fill="#dd582a"></path><path d="M269.51,235.5l3.83-2.12-1-5.47s-5.71.54-6.21,2.57" fill="#003b94"></path><path d="M268.07,235.42c-.86-.53-1.77-1-2.65-1.48-2.22-1.21-5.41-2.47-6.78-4.74a2.64,2.64,0,0,1,.18-3c2-2.43,6.4,1.56,8.65-1.13.45-.53.65-9,.65-9l8.55,2.3s1.45,17,1.28,18-3.1,2.05-3.1,2.05a7.57,7.57,0,0,1-2.47-1c-.9-.65-.08-8.6-1.22-7.49s-1.64,5.47-1.64,5.47A5.87,5.87,0,0,1,268.07,235.42Z" fill="#68e1fd"></path><path d="M253.15,243.7l3.83-2.12-1-5.47s-5.71.54-6.21,2.57" fill="#003b94"></path><path d="M251.71,243.62c-.86-.53-1.77-1-2.65-1.48-2.22-1.21-5.41-2.47-6.78-4.74a2.64,2.64,0,0,1,.18-3c2-2.43,6.4,1.56,8.65-1.13.45-.53.65-9,.65-9l8.55,2.3s1.45,17,1.28,18-3.1,2.05-3.1,2.05a7.57,7.57,0,0,1-2.47-1c-.9-.65-.08-8.6-1.22-7.49s-1.64,5.47-1.64,5.47A5.87,5.87,0,0,1,251.71,243.62Z" fill="#68e1fd"></path><path d="M281,188.58l2.47,33.67s-4,5.53-17.46,2.46h0L265.88,202" fill="#06577a"></path><path d="M265.41,195.25c.29,2.9,0,34.88,0,34.88s-3.72,7-19.92,0l.23-27.17" fill="#06577a"></path><path d="M279.62,197.22a65.64,65.64,0,0,1-13.28,5.86l-.1,0a.91.91,0,0,0-1.23.46,70.17,70.17,0,0,1-8.72,2c-3.78.61-6.92-2.19-10.79-2.39,0-14.87-.07-57.22,6.26-66.17l18.71-6.26c.09,1.54,9.09,12,8.87,24.69A273.67,273.67,0,0,0,281,189.18" fill="#06577a"></path><path d="M250,119.85l1.73,17.06s14,.57,20-3.59V118.85" fill="#dd582a"></path><path d="M258.89,104.29s-6.6,1.78-9.27,6.06c-2.06,3.29-3.14,15.26-3.14,15.26l-11.71-3.42a11.94,11.94,0,0,1-2.68,5s7,4.82,13.11,6.14,12.61-9.09,12.61-9.09,1.35,4.32,1.08-.29" fill="#dd582a"></path><path d="M254.69,120.7a13.38,13.38,0,0,0,4.18-6c.79-2.7-.2-5.07-1.13-7.58A24.41,24.41,0,0,1,256,99.37c-.08-2.63.22-5.25.4-7.87a.76.76,0,0,0,0-.34c.88-3,2.69-5.46,6.25-5.77,9.22-.78,9.74,9.43,9.67,13.58s-.51,7,2.54,8.7,5.27,6.29,2.35,10-.3,2.34,1.65,5.61,1.44,7.35-2.55,8.83-22.55-1.3-24.26-3a3.54,3.54,0,0,1-.87-2.51A9.73,9.73,0,0,1,254.69,120.7Z" fill="#ffc866"></path><path d="M345.61,197.68a46,46,0,0,1-5.56-7.22,19.63,19.63,0,0,1-2.77-5.06l-8.67-6.55L324,138.57l-7-1.6v55.26l33.52,19.55,12.37-7.05-2-1.52C355.39,202.7,349.63,201.54,345.61,197.68Z" fill="#68e1fd"></path><polygon points="310.45 142.8 312.11 141.85 334.93 128.82 322.69 109.66 310.45 142.8" fill="#464daa"></polygon><path d="M349.21,196.39c-9.62-7.09-16.13-15.74-18.44-27.56-1.34-6.85-2.42-13.75-3.38-20.66A110.29,110.29,0,0,1,326.22,130l-6.8,1.43c-.56,1.22.1,3.92.18,5.2.27,4.09.66,8.17,1.14,12.23,1.23,10.35,2.88,20.89,6.33,30.76,4.63,13.26,17.45,23.9,31,27.6L365,203.6C360.6,202.2,352.78,199,349.21,196.39Z" fill="#464daa"></path><polyline points="322.69 109.66 319.19 109.66 306.94 141.28 310.45 142.8" fill="#68e1fd"></polyline></svg>